<?xml version="1.0" encoding="UTF-8"?>
<svg width="130px" height="130px" viewBox="0 0 130 130" version="1.1" xmlns="http://www.w3.org/2000/svg" xmlns:xlink="http://www.w3.org/1999/xlink">
    <!-- Generator: Sketch 49 (51002) - http://www.bohemiancoding.com/sketch -->
    <title>Artboard</title>
    <desc>Created with Sketch.</desc>
    <defs></defs>
    <g id="Artboard" stroke="none" stroke-width="1" fill="none" fill-rule="evenodd">
        <circle id="Oval-5" fill="#F6F6F6" cx="65" cy="65" r="65"></circle>
        <g id="Group" transform="translate(41.000000, 38.000000)" fill="#000000" opacity="0.100000001">
            <path d="M24,27.8947368 C31.7969612,27.8947368 38.1176471,23.265632 38.1176471,13.9473684 C38.1176471,4.62910483 31.7969612,0 24,0 C16.2030388,0 9.88235294,4.83960311 9.88235294,13.9473684 C9.88235294,23.0551337 16.2030388,27.8947368 24,27.8947368 Z" id="Oval-2"></path>
            <path d="M9.73478087e-16,46.5031304 L4.4408921e-16,50.2001883 C6.3346826e-16,51.7465856 1.2536027,53.0001883 2.8,53.0001883 L45.2000205,53.0001952 C46.7464178,53.0001952 48.0000205,51.7465925 48.0000205,50.2001952 C48.0000205,50.2001929 48.0000205,50.2001906 48.0000205,50.2001883 L48.0000106,46.503123 C48.0000074,45.2076591 47.5508637,43.9522653 46.7290937,42.9508059 C41.5468863,36.6354489 33.9705248,33.4777704 24.0000091,33.4777704 C14.0294979,33.4777704 6.45313359,36.635446 1.27091607,42.9507973 L1.2709195,42.9508001 C0.449144987,43.9522622 1.5422545e-16,45.2076615 8.8817842e-16,46.5031304 Z" id="Path-29"></path>
        </g>
    </g>
</svg>