<?xml version="1.0" encoding="UTF-8"?>
<svg width="24px" height="24px" viewBox="0 0 24 24" version="1.1" xmlns="http://www.w3.org/2000/svg" xmlns:xlink="http://www.w3.org/1999/xlink">
    <!-- Generator: Sketch 49 (51002) - http://www.bohemiancoding.com/sketch -->
    <title>icon / 已加入购物车</title>
    <desc>Created with Sketch.</desc>
    <defs></defs>
    <g id="icon-/-已加入购物车" stroke="none" stroke-width="1" fill="none" fill-rule="evenodd">
        <g id="car" fill="#FF9F00">
            <path d="M11.6804664,9.0468412 C11.2544431,8.62081941 10.5637227,8.62081941 10.1376993,9.0468412 C9.71167598,9.47286299 9.71167598,10.1635808 10.1376993,10.5896026 L12.9885189,13.4404115 L18.1090299,9.60004248 C18.5910203,9.23855101 18.6887029,8.55477528 18.3272101,8.07278665 C17.9657173,7.59079802 17.2819391,7.49311577 16.7999486,7.85460724 L13.1932512,10.5596203 L11.6804664,9.0468412 Z" id="Path-9" fill-rule="nonzero"></path>
            <path d="M8.4781912,5.45454545 L21.0727176,5.45454545 C21.5983432,5.45454545 21.8917729,5.80391673 21.8009968,6.32001929 L20.4450293,14.0293003 C20.3279274,14.6950772 19.6405726,15.2727273 18.9620656,15.2727273 L8.547577,15.2727273 C7.88874683,15.2727273 7.24001942,14.7080563 7.15024945,14.0584787 L5.63545404,3.09738379 C5.39589527,1.36393094 3.8313715,0 2.07528971,0 L1.09090909,0 C0.488416637,0 0,0.488416637 0,1.09090909 C0,1.69340155 0.488416637,2.18181818 1.09090909,2.18181818 L2.07528971,2.18181818 C2.74154692,2.18181818 3.38374157,2.7416749 3.47417686,3.39606679 L4.98897227,14.3571617 C5.22796417,16.0865126 6.79964106,17.4545455 8.547577,17.4545455 L18.9620656,17.4545455 C20.7002498,17.4545455 22.2933682,16.1156954 22.593862,14.4072534 L23.9498295,6.69797247 C24.2755743,4.84596756 22.9542425,3.27272727 21.0727176,3.27272727 L8.4781912,3.27272727 C7.87569875,3.27272727 7.38728211,3.76114391 7.38728211,4.36363636 C7.38728211,4.96612882 7.87569875,5.45454545 8.4781912,5.45454545 Z" id="Rectangle-3" fill-rule="nonzero"></path>
            <circle id="Oval" cx="9.81818182" cy="21.8181818" r="2.18181818"></circle>
            <circle id="Oval-Copy" cx="17.4545455" cy="21.8181818" r="2.18181818"></circle>
        </g>
    </g>
</svg>