<?xml version="1.0" encoding="UTF-8"?>
<svg width="194px" height="81px" viewBox="0 0 194 81" version="1.1" xmlns="http://www.w3.org/2000/svg" xmlns:xlink="http://www.w3.org/1999/xlink">
    <!-- Generator: Sketch 49 (51002) - http://www.bohemiancoding.com/sketch -->
    <title>技术支持</title>
    <desc>Created with Sketch.</desc>
    <defs></defs>
    <g id="技术支持" stroke="none" stroke-width="1" fill="none" fill-rule="evenodd">
        <g id="Group-6" transform="translate(1.000000, 52.000000)" fill="#000000" fill-opacity="0.4" font-family="PingFangSC-Regular, PingFang SC" font-size="24" font-weight="normal" opacity="0.600000024">
            <text id="快批提供技术支持">
                <tspan x="0" y="25">快批提供技术支持</tspan>
            </text>
        </g>
        <g id="Group" transform="translate(31.000000, 1.000000)" fill="#000000">
            <path d="M87.866426,18.7951807 L89.7870036,18.7951807 L89.7870036,23.1325301 L87.866426,23.1325301 L80.1841155,23.1325301 L89.7870036,40 L84.0252708,40 L77.3032491,27.9518072 L71.5415162,40 L65.7797834,40 L74.4223827,23.1325301 L68.6606498,23.1325301 L68.6606498,18.7951807 L74.9025271,18.7951807 L74.9025271,10.1204819 L69.6209386,10.1204819 L69.6209386,5.78313253 L74.9025271,5.78313253 L74.9025271,0.481927711 L80.1841155,0.481927711 L80.1841155,5.78313253 L87.866426,5.78313253 L87.866426,18.7951807 Z M83.0649819,10.1204819 L80.1841155,10.1204819 L80.1841155,18.7951807 L83.0649819,18.7951807 L83.0649819,10.1204819 Z M121.956679,0.481927711 L127.238267,0.481927711 L127.238267,5.78313253 L133,5.78313253 L133,10.1204819 L127.238267,10.1204819 L127.238267,35.6626506 L133,35.6626506 L133,40 L121.956679,40 L121.956679,0.481927711 Z M108.512635,0.481927711 L113.794224,0.481927711 L113.794224,5.78313253 L119.555957,5.78313253 L119.555957,10.1204819 L113.794224,10.1204819 L113.794224,35.6626506 L119.555957,35.6626506 L119.555957,40 L108.512635,40 L108.512635,0.481927711 Z M96.9891697,0.481927711 L102.270758,0.481927711 L102.270758,5.78313253 L106.111913,5.78313253 L106.111913,10.1204819 L102.270758,10.1204819 L102.270758,18.7951807 L106.111913,18.7951807 L106.111913,23.1325301 L102.270758,23.1325301 L102.270758,40 L93.1480144,40 L93.1480144,35.6626506 L96.9891697,35.6626506 L96.9891697,23.1325301 L93.1480144,23.1325301 L93.1480144,18.7951807 L96.9891697,18.7951807 L96.9891697,10.1204819 L93.1480144,10.1204819 L93.1480144,5.78313253 L96.9891697,5.78313253 L96.9891697,0.481927711 Z M56.6570397,0 L61.9386282,0 L61.9386282,40 L56.6570397,40 L56.6570397,0 Z M63.8592058,5.78313253 L67.2202166,5.78313253 L67.2202166,23.1325301 L63.8592058,23.1325301 L63.8592058,5.78313253 Z M51.8555957,5.78313253 L55.2166065,5.78313253 L55.2166065,23.1325301 L51.8555957,23.1325301 L51.8555957,5.78313253 Z" id="Combined-Shape" fill-opacity="0.15"></path>
            <g id="K-Copy-2" transform="translate(0.000000, 0.481928)">
                <path d="M0,0.827930314 L0,31.0216867 L16.8342623,7.76802274 L11.4688401,0.343011851 C11.3131749,0.127592477 11.0635558,-2.74138236e-15 10.7977793,-2.22044605e-15 L0.827930314,1.11022302e-16 C0.370677028,1.95018369e-16 5.50249251e-17,0.370677028 1.11022302e-16,0.827930314 Z" id="竖-copy-18" fill-opacity="0.2"></path>
                <path d="M0,38.690142 L0,30.8240694 L22.0956004,0.34199142 C22.2513307,0.127152996 22.5005981,-2.69568275e-05 22.7659422,-2.69568275e-05 L38.241364,-2.69568275e-05 C38.6986172,-2.69568275e-05 39.0692943,0.370650071 39.0692943,0.827903358 C39.0692943,1.00242364 39.0141461,1.17248089 38.9117262,1.31378723 L11.468892,39.1759999 C11.3131639,39.3908542 11.0638874,39.5180457 10.7985318,39.5180463 L0.827930314,39.5180723 C0.370677028,39.5180734 -8.90495099e-07,39.1473973 -1.98898237e-06,38.690144 C-1.98898396e-06,38.6901433 -1.98898476e-06,38.6901426 -1.98898476e-06,38.690142 Z" id="Combined-Shape-Copy-5" fill-opacity="0.15"></path>
                <path d="M23.3790491,39.5180723 L38.2378823,39.5180723 C38.6951356,39.5180723 39.0658126,39.1473953 39.0658126,38.690142 C39.0658126,38.515131 39.0103543,38.3446214 38.9074007,38.2030962 L31.4779842,27.9902344 C31.2089962,27.6204695 30.6911847,27.5387737 30.3214199,27.8077617 C30.2514322,27.8586747 30.1898603,27.9202467 30.1389472,27.9902344 L22.7095307,38.2030962 C22.4405427,38.572861 22.5222385,39.0906725 22.8920033,39.3596604 C23.0335286,39.462614 23.2040382,39.5180723 23.3790491,39.5180723 Z" id="点-copy-25" fill-opacity="0.15"></path>
            </g>
        </g>
    </g>
</svg>